<?xml version="1.0" standalone="no"?>
<!DOCTYPE svg PUBLIC "-//W3C//DTD SVG 20010904//EN"
 "http://www.w3.org/TR/2001/REC-SVG-20010904/DTD/svg10.dtd">
<svg version="1.0" xmlns="http://www.w3.org/2000/svg"
 width="630.000000pt" height="270.000000pt" viewBox="0 0 630.000000 270.000000"
 preserveAspectRatio="xMidYMid meet">

<g transform="translate(0.000000,270.000000) scale(0.100000,-0.100000)"
fill="#000000" stroke="none">
<path d="M0 1350 l0 -1350 3150 0 3150 0 0 1350 0 1350 -3150 0 -3150 0 0
-1350z m2661 1094 c25 -26 46 -79 125 -315 64 -193 101 -290 115 -301 19 -16
49 -18 303 -18 211 0 286 3 298 13 9 6 37 59 61 117 25 58 74 168 110 245 l65
140 76 3 77 3 -15 -33 c-84 -189 -164 -367 -193 -428 -20 -41 -46 -98 -59
-127 -13 -29 -32 -57 -43 -62 -13 -7 -148 -11 -385 -11 l-366 0 0 -49 c0 -38
6 -56 24 -78 l24 -28 371 -3 371 -3 0 -64 0 -64 -36 -7 -35 -7 30 -31 c39 -40
48 -83 27 -124 -31 -60 -87 -78 -146 -47 -68 35 -76 120 -16 173 l34 30 -30 6
c-39 8 -431 8 -451 0 -12 -4 -7 -13 19 -37 47 -43 54 -90 22 -137 -60 -88
-188 -50 -188 56 0 34 7 51 31 78 l30 35 -45 12 c-64 16 -119 59 -145 113 -21
42 -22 58 -21 247 l0 202 -66 197 -66 198 -83 4 c-64 2 -88 7 -104 22 -26 23
-28 72 -4 98 16 18 30 19 135 16 116 -3 118 -3 149 -34z m712 -276 c-54 -54
-101 -98 -105 -98 -5 0 -8 27 -8 59 0 44 -4 60 -16 65 -9 3 -76 6 -149 6
l-133 0 -4 65 -3 65 137 0 c75 0 143 3 152 6 12 5 16 21 16 72 l0 67 105 -105
105 -105 -97 -97z m549 -1470 l3 -333 28 -3 c26 -3 27 -5 27 -68 l0 -64 -150
0 -150 0 0 65 c0 58 2 65 20 65 12 0 21 8 24 23 2 12 3 132 2 267 l-1 245 -22
3 c-21 3 -23 9 -23 68 l0 64 120 0 120 0 2 -332z m-1281 277 c24 -9 61 -32 81
-52 l37 -36 7 41 7 42 88 0 89 0 0 -130 0 -130 -94 0 -93 0 -6 29 c-15 72
-102 116 -171 87 -38 -16 -52 -45 -36 -75 14 -27 30 -35 152 -77 183 -64 236
-102 259 -187 39 -147 -80 -267 -265 -267 -79 0 -124 13 -185 54 -53 36 -61
33 -61 -20 0 -24 -1 -24 -90 -24 l-90 0 0 130 0 130 93 0 92 0 15 -33 c20 -42
62 -62 133 -62 49 0 62 4 77 23 35 42 21 52 -149 108 -117 39 -157 60 -200
109 -97 111 -42 285 106 340 51 18 151 18 204 0z m-803 -117 l-3 -113 -85 0
-85 0 -3 48 -3 47 -90 0 -89 0 0 -75 0 -74 103 -3 102 -3 0 -65 0 -65 -100 -5
-100 -5 -3 -87 -3 -88 90 0 90 0 3 48 3 47 85 0 85 0 3 -117 3 -118 -321 0
-320 0 0 70 0 70 29 0 c27 0 30 4 36 43 3 23 5 128 3 232 l-3 190 -32 3 -33 3
0 65 0 64 320 0 321 0 -3 -112z m1576 -88 c123 -46 145 -89 146 -277 l0 -133
30 0 30 0 0 -65 0 -65 -109 0 c-101 0 -110 2 -123 22 l-15 22 -28 -22 c-83
-65 -236 -44 -297 40 -33 48 -33 140 2 190 62 91 174 120 283 73 14 -6 17 -2
17 28 0 44 -15 56 -79 64 -38 4 -67 0 -117 -16 -36 -13 -67 -21 -68 -19 -5 6
-36 94 -36 101 0 8 93 56 130 68 52 16 177 10 234 -11z m999 -20 c51 -19 113
-72 135 -115 17 -33 25 -137 13 -167 l-11 -28 -165 0 c-156 0 -165 -1 -165
-19 0 -11 14 -31 31 -45 41 -34 118 -36 185 -4 l46 23 40 -43 c21 -24 38 -48
36 -55 -6 -20 -109 -66 -173 -78 -123 -23 -232 7 -298 81 -56 61 -71 102 -71
195 0 105 36 177 115 229 74 50 190 60 282 26z m501 -17 c47 -34 56 -33 56 4
0 22 4 23 60 23 l60 0 0 -90 0 -90 -65 0 c-51 0 -65 3 -65 15 0 41 -123 73
-151 39 -22 -27 2 -46 102 -84 128 -49 157 -66 179 -103 65 -106 -28 -227
-174 -227 -59 0 -146 30 -146 51 0 5 -7 9 -15 9 -9 0 -15 -9 -15 -25 0 -24 -2
-25 -65 -25 l-65 0 0 95 0 95 65 0 c60 0 66 -2 77 -25 13 -28 64 -55 106 -55
29 0 62 21 62 40 0 16 -43 38 -109 55 -120 31 -183 79 -197 150 -20 106 67
188 193 182 51 -2 71 -9 107 -34z m-2714 -248 l0 -65 -150 0 -150 0 0 65 0 65
150 0 150 0 0 -65z"/>
<path d="M3231 436 c-20 -24 -9 -69 21 -85 24 -14 30 -14 62 2 29 13 36 22 36
45 0 15 -5 33 -12 40 -17 17 -93 15 -107 -2z"/>
<path d="M4274 630 c-27 -11 -54 -48 -54 -73 0 -16 8 -18 83 -15 l82 3 -2 29
c-1 16 -8 35 -15 43 -18 17 -68 25 -94 13z"/>
</g>
</svg>
